<svg viewBox="0 0 50 50">
  <path d="M25 2C12.316 2 2 12.316 2 25s10.316 23 23 23 23-10.316 23-23S37.684 2 25 2zm-3.594 13.824a1.13 1.13 0 0 1 1.547-.402l1.004.586c.54.316.723 1.008.406 1.55l-.996 1.704-2.957-1.73zm-11.078 7.5h6.145l-1.957 3.309h-4.188zm1.48 12.75a.23.23 0 0 1-.273.031.221.221 0 0 1-.101-.25l1.43-5.41 2.956 1.73zm1.426-6.27l6.934-11.859 2.957 1.73-6.934 11.86zm6.356-3.171l1.836-3.305h7.086l1.836 3.305zm3.594-13.613a1.13 1.13 0 0 1 .41-1.547l.918-.536a1.135 1.135 0 0 1 1.547.41l7.84 13.497-2.876 1.672zm8.16 14.05l2.875-1.672 1.664 2.864-2.875 1.668zm6.05 8.914c-.066.094-.234.016-.285-.062-.132-.211-.015-.5-.437-1.145-.777-1.183-1.805-.949-2.797-2.617-.176-.293-.77-1.637 0-2.094.41-.246 1.105-.66 1.574-.921.79-.45 1.52.492 1.922 1.082.867 1.265 1.219 4.109.024 5.757zm2.235-9.351h-4.121l-1.801-3.305h5.922z"/>
</svg>