<svg width="32" height="32" viewBox="0 0 64 64" style="fill-rule:evenodd;clip-rule:evenodd;stroke-linejoin:round;stroke-miterlimit:2;">
    <path d="M32,0C49.661,0 64,14.339 64,32C64,49.661 49.661,64 32,64C14.339,64 0,49.661 0,32C0,14.339 14.339,0 32,0ZM12.4,25L12.4,51.7L20.7,51.7L20.7,25L12.4,25ZM25.8,25L33.8,25L33.8,28.6L33.9,28.6C35,26.5 37.7,24.3 41.7,24.3C50.1,24.3 51.7,29.8 51.7,37L51.7,51.6L43.4,51.6L43.4,38.6C43.4,35.5 43.3,31.5 39.1,31.5C34.8,31.5 34.2,34.9 34.2,38.4L34.2,51.6L25.9,51.6L25.8,25ZM16.5,11.8C19.1,11.8 21.3,13.9 21.3,16.6C21.3,19.2 19.2,21.4 16.5,21.4C13.8,21.4 11.7,19.3 11.7,16.6C11.7,13.9 13.8,11.8 16.5,11.8Z"/>
</svg>
