<?xml version="1.0" encoding="UTF-8" standalone="no"?>
<!DOCTYPE svg PUBLIC "-//W3C//DTD SVG 1.1//EN" "http://www.w3.org/Graphics/SVG/1.1/DTD/svg11.dtd">
<svg width="100%" height="100%" viewBox="0 0 900 401" version="1.1" xmlns="http://www.w3.org/2000/svg" xmlns:xlink="http://www.w3.org/1999/xlink" xml:space="preserve" xmlns:serif="http://www.serif.com/" style="fill-rule:evenodd;clip-rule:evenodd;stroke-linejoin:round;stroke-miterlimit:2;">
    <g transform="matrix(1.06343,0,0,1.06343,-28.5416,5.14674)">
        <g transform="matrix(0.858784,0,0,0.858784,-28.451,87.2549)">
            <g transform="matrix(64.77,0,0,64.77,234.536,326.464)">
                <path d="M0.495,-0.184C0.495,-0.125 0.473,-0.077 0.429,-0.042C0.386,-0.008 0.327,0.01 0.255,0.01C0.168,0.01 0.101,0 0.054,-0.019L0.054,-0.069C0.106,-0.047 0.171,-0.036 0.251,-0.036C0.31,-0.036 0.356,-0.05 0.39,-0.076C0.425,-0.103 0.442,-0.139 0.442,-0.182C0.442,-0.209 0.436,-0.232 0.425,-0.249C0.413,-0.267 0.395,-0.283 0.369,-0.298C0.343,-0.313 0.306,-0.328 0.256,-0.345C0.183,-0.37 0.133,-0.397 0.105,-0.427C0.077,-0.456 0.063,-0.494 0.063,-0.543C0.063,-0.596 0.084,-0.64 0.126,-0.674C0.168,-0.707 0.221,-0.724 0.287,-0.724C0.354,-0.724 0.417,-0.711 0.476,-0.686L0.458,-0.643C0.399,-0.668 0.342,-0.68 0.288,-0.68C0.235,-0.68 0.193,-0.668 0.162,-0.644C0.131,-0.619 0.115,-0.586 0.115,-0.544C0.115,-0.518 0.12,-0.496 0.13,-0.479C0.139,-0.462 0.155,-0.447 0.177,-0.433C0.199,-0.42 0.236,-0.404 0.289,-0.385C0.345,-0.366 0.387,-0.347 0.415,-0.329C0.443,-0.311 0.463,-0.29 0.476,-0.267C0.489,-0.244 0.495,-0.217 0.495,-0.184Z" style="fill:rgb(197,198,199);fill-rule:nonzero;"/>
            </g>
            <g transform="matrix(64.77,0,0,64.77,269.831,326.464)">
                <path d="M0.701,-0.358C0.701,-0.245 0.673,-0.155 0.616,-0.089C0.56,-0.023 0.481,0.01 0.382,0.01C0.283,0.01 0.205,-0.023 0.148,-0.089C0.091,-0.155 0.063,-0.245 0.063,-0.359C0.063,-0.472 0.092,-0.562 0.149,-0.627C0.206,-0.692 0.284,-0.725 0.383,-0.725C0.482,-0.725 0.56,-0.692 0.617,-0.627C0.673,-0.561 0.701,-0.472 0.701,-0.358ZM0.117,-0.358C0.117,-0.256 0.14,-0.177 0.186,-0.121C0.231,-0.065 0.297,-0.037 0.382,-0.037C0.468,-0.037 0.533,-0.065 0.579,-0.12C0.624,-0.175 0.647,-0.255 0.647,-0.358C0.647,-0.461 0.624,-0.54 0.579,-0.594C0.533,-0.649 0.468,-0.677 0.383,-0.677C0.298,-0.677 0.232,-0.649 0.186,-0.594C0.14,-0.538 0.117,-0.46 0.117,-0.358Z" style="fill:rgb(197,198,199);fill-rule:nonzero;"/>
            </g>
            <g transform="matrix(64.77,0,0,64.77,319.325,326.464)">
                <path d="M0.151,-0L0.101,-0L0.101,-0.714L0.492,-0.714L0.492,-0.668L0.151,-0.668L0.151,-0.365L0.473,-0.365L0.473,-0.319L0.151,-0.319L0.151,-0Z" style="fill:rgb(197,198,199);fill-rule:nonzero;"/>
            </g>
            <g transform="matrix(64.77,0,0,64.77,351.837,326.464)">
                <path d="M0.287,-0L0.237,-0L0.237,-0.667L0.005,-0.667L0.005,-0.714L0.519,-0.714L0.519,-0.667L0.287,-0.667L0.287,-0Z" style="fill:rgb(197,198,199);fill-rule:nonzero;"/>
            </g>
            <g transform="matrix(64.77,0,0,64.77,385.771,326.464)">
                <path d="M0.67,-0L0.629,-0L0.472,-0.551C0.459,-0.596 0.449,-0.633 0.443,-0.662C0.438,-0.634 0.43,-0.601 0.421,-0.564C0.411,-0.528 0.359,-0.34 0.263,-0L0.221,-0L0.025,-0.714L0.077,-0.714L0.202,-0.254C0.207,-0.235 0.212,-0.218 0.216,-0.202C0.22,-0.187 0.224,-0.172 0.227,-0.158C0.231,-0.144 0.234,-0.131 0.237,-0.118C0.239,-0.105 0.242,-0.092 0.244,-0.079C0.252,-0.123 0.269,-0.191 0.294,-0.281L0.416,-0.714L0.471,-0.714L0.614,-0.217C0.631,-0.16 0.643,-0.113 0.65,-0.078C0.654,-0.102 0.66,-0.126 0.666,-0.153C0.673,-0.179 0.723,-0.366 0.817,-0.714L0.867,-0.714L0.67,-0Z" style="fill:rgb(197,198,199);fill-rule:nonzero;"/>
            </g>
            <g transform="matrix(64.77,0,0,64.77,443.552,326.464)">
                <path d="M0.445,-0.252L0.155,-0.252L0.055,-0L0,-0L0.287,-0.717L0.319,-0.717L0.6,-0L0.544,-0L0.445,-0.252ZM0.173,-0.297L0.428,-0.297L0.331,-0.554C0.323,-0.574 0.313,-0.602 0.302,-0.638C0.293,-0.607 0.283,-0.579 0.273,-0.553L0.173,-0.297Z" style="fill:rgb(197,198,199);fill-rule:nonzero;"/>
            </g>
            <g transform="matrix(64.77,0,0,64.77,482.42,326.464)">
                <path d="M0.151,-0.311L0.151,-0L0.101,-0L0.101,-0.714L0.271,-0.714C0.36,-0.714 0.425,-0.698 0.467,-0.665C0.51,-0.632 0.531,-0.583 0.531,-0.517C0.531,-0.469 0.518,-0.429 0.493,-0.396C0.468,-0.363 0.429,-0.34 0.378,-0.325L0.572,-0L0.512,-0L0.328,-0.311L0.151,-0.311ZM0.151,-0.354L0.287,-0.354C0.347,-0.354 0.394,-0.367 0.427,-0.394C0.46,-0.421 0.477,-0.461 0.477,-0.513C0.477,-0.568 0.461,-0.607 0.428,-0.632C0.396,-0.657 0.343,-0.669 0.269,-0.669L0.151,-0.669L0.151,-0.354Z" style="fill:rgb(197,198,199);fill-rule:nonzero;"/>
            </g>
            <g transform="matrix(64.77,0,0,64.77,520.909,326.464)">
                <path d="M0.491,-0L0.101,-0L0.101,-0.714L0.491,-0.714L0.491,-0.668L0.151,-0.668L0.151,-0.398L0.472,-0.398L0.472,-0.352L0.151,-0.352L0.151,-0.046L0.491,-0.046L0.491,-0Z" style="fill:rgb(197,198,199);fill-rule:nonzero;"/>
            </g>
            <g transform="matrix(64.77,0,0,64.77,573.472,326.464)">
                <path d="M0.491,-0L0.101,-0L0.101,-0.714L0.491,-0.714L0.491,-0.668L0.151,-0.668L0.151,-0.398L0.472,-0.398L0.472,-0.352L0.151,-0.352L0.151,-0.046L0.491,-0.046L0.491,-0Z" style="fill:rgb(197,198,199);fill-rule:nonzero;"/>
            </g>
            <g transform="matrix(64.77,0,0,64.77,609.209,326.464)">
                <path d="M0.62,-0L0.57,-0L0.147,-0.634L0.143,-0.634C0.147,-0.558 0.149,-0.501 0.149,-0.463L0.149,-0L0.101,-0L0.101,-0.714L0.151,-0.714L0.573,-0.081L0.576,-0.081C0.573,-0.14 0.572,-0.195 0.572,-0.248L0.572,-0.714L0.62,-0.714L0.62,-0Z" style="fill:rgb(197,198,199);fill-rule:nonzero;"/>
            </g>
            <g transform="matrix(64.77,0,0,64.77,655.921,326.464)">
                <path d="M0.382,-0.36L0.645,-0.36L0.645,-0.034C0.576,-0.005 0.498,0.01 0.412,0.01C0.299,0.01 0.213,-0.022 0.153,-0.086C0.093,-0.149 0.063,-0.239 0.063,-0.356C0.063,-0.429 0.078,-0.493 0.108,-0.549C0.137,-0.605 0.18,-0.649 0.236,-0.679C0.291,-0.71 0.355,-0.725 0.427,-0.725C0.505,-0.725 0.574,-0.711 0.636,-0.682L0.616,-0.637C0.554,-0.666 0.49,-0.68 0.424,-0.68C0.33,-0.68 0.255,-0.651 0.2,-0.593C0.145,-0.535 0.117,-0.457 0.117,-0.358C0.117,-0.25 0.143,-0.17 0.196,-0.115C0.248,-0.061 0.325,-0.034 0.427,-0.034C0.493,-0.034 0.548,-0.043 0.594,-0.062L0.594,-0.313L0.382,-0.313L0.382,-0.36Z" style="fill:rgb(197,198,199);fill-rule:nonzero;"/>
            </g>
            <g transform="matrix(64.77,0,0,64.77,702.759,326.464)">
                <rect x="0.101" y="-0.714" width="0.05" height="0.714" style="fill:rgb(197,198,199);fill-rule:nonzero;"/>
            </g>
            <g transform="matrix(64.77,0,0,64.77,719.078,326.464)">
                <path d="M0.62,-0L0.57,-0L0.147,-0.634L0.143,-0.634C0.147,-0.558 0.149,-0.501 0.149,-0.463L0.149,-0L0.101,-0L0.101,-0.714L0.151,-0.714L0.573,-0.081L0.576,-0.081C0.573,-0.14 0.572,-0.195 0.572,-0.248L0.572,-0.714L0.62,-0.714L0.62,-0Z" style="fill:rgb(197,198,199);fill-rule:nonzero;"/>
            </g>
            <g transform="matrix(64.77,0,0,64.77,765.789,326.464)">
                <path d="M0.491,-0L0.101,-0L0.101,-0.714L0.491,-0.714L0.491,-0.668L0.151,-0.668L0.151,-0.398L0.472,-0.398L0.472,-0.352L0.151,-0.352L0.151,-0.046L0.491,-0.046L0.491,-0Z" style="fill:rgb(197,198,199);fill-rule:nonzero;"/>
            </g>
            <g transform="matrix(64.77,0,0,64.77,801.527,326.464)">
                <path d="M0.491,-0L0.101,-0L0.101,-0.714L0.491,-0.714L0.491,-0.668L0.151,-0.668L0.151,-0.398L0.472,-0.398L0.472,-0.352L0.151,-0.352L0.151,-0.046L0.491,-0.046L0.491,-0Z" style="fill:rgb(197,198,199);fill-rule:nonzero;"/>
            </g>
            <g transform="matrix(64.77,0,0,64.77,837.264,326.464)">
                <path d="M0.151,-0.311L0.151,-0L0.101,-0L0.101,-0.714L0.271,-0.714C0.36,-0.714 0.425,-0.698 0.467,-0.665C0.51,-0.632 0.531,-0.583 0.531,-0.517C0.531,-0.469 0.518,-0.429 0.493,-0.396C0.468,-0.363 0.429,-0.34 0.378,-0.325L0.572,-0L0.512,-0L0.328,-0.311L0.151,-0.311ZM0.151,-0.354L0.287,-0.354C0.347,-0.354 0.394,-0.367 0.427,-0.394C0.46,-0.421 0.477,-0.461 0.477,-0.513C0.477,-0.568 0.461,-0.607 0.428,-0.632C0.396,-0.657 0.343,-0.669 0.269,-0.669L0.151,-0.669L0.151,-0.354Z" style="fill:rgb(197,198,199);fill-rule:nonzero;"/>
            </g>
        </g>
        <g transform="matrix(1.54256,0,0,1.50534,-312.836,-91.1911)">
            <g>
                <g transform="matrix(98.613,0,0,98.613,313.72,134.035)">
                    <path d="M0.219,-0.118L0.577,-0.118L0.577,-0L0.036,-0L0.036,-0.086L0.387,-0.592L0.036,-0.592L0.036,-0.711L0.569,-0.711L0.569,-0.627L0.219,-0.118Z" style="fill:rgb(102,252,241);fill-rule:nonzero;"/>
                </g>
                <g transform="matrix(98.613,0,0,98.613,373.475,134.035)">
                    <path d="M0.36,-0C0.354,-0.013 0.349,-0.028 0.346,-0.047C0.312,-0.009 0.268,0.01 0.213,0.01C0.161,0.01 0.118,-0.005 0.084,-0.035C0.05,-0.065 0.033,-0.103 0.033,-0.148C0.033,-0.204 0.054,-0.247 0.095,-0.277C0.137,-0.307 0.197,-0.322 0.275,-0.323L0.34,-0.323L0.34,-0.353C0.34,-0.377 0.334,-0.397 0.322,-0.412C0.309,-0.426 0.289,-0.434 0.262,-0.434C0.238,-0.434 0.22,-0.428 0.206,-0.417C0.193,-0.405 0.186,-0.389 0.186,-0.37L0.045,-0.37C0.045,-0.4 0.054,-0.429 0.073,-0.455C0.092,-0.481 0.119,-0.501 0.153,-0.516C0.188,-0.531 0.227,-0.538 0.27,-0.538C0.335,-0.538 0.386,-0.522 0.425,-0.489C0.463,-0.456 0.482,-0.41 0.482,-0.351L0.482,-0.122C0.482,-0.072 0.489,-0.034 0.503,-0.008L0.503,-0L0.36,-0ZM0.244,-0.098C0.264,-0.098 0.284,-0.103 0.301,-0.112C0.319,-0.121 0.332,-0.134 0.34,-0.149L0.34,-0.24L0.288,-0.24C0.217,-0.24 0.179,-0.216 0.175,-0.167L0.174,-0.159C0.174,-0.141 0.181,-0.127 0.193,-0.115C0.205,-0.104 0.222,-0.098 0.244,-0.098Z" style="fill:rgb(102,252,241);fill-rule:nonzero;"/>
                </g>
                <g transform="matrix(98.613,0,0,98.613,426.345,134.035)">
                    <path d="M0.274,-0.104C0.3,-0.104 0.321,-0.111 0.337,-0.125C0.354,-0.14 0.362,-0.159 0.363,-0.183L0.495,-0.183C0.495,-0.147 0.485,-0.114 0.466,-0.084C0.447,-0.054 0.42,-0.031 0.387,-0.015C0.354,0.002 0.317,0.01 0.276,0.01C0.201,0.01 0.141,-0.014 0.098,-0.062C0.054,-0.11 0.032,-0.177 0.032,-0.261L0.032,-0.271C0.032,-0.352 0.054,-0.417 0.097,-0.465C0.14,-0.514 0.2,-0.538 0.275,-0.538C0.341,-0.538 0.394,-0.519 0.434,-0.482C0.474,-0.444 0.494,-0.394 0.495,-0.332L0.363,-0.332C0.362,-0.359 0.354,-0.381 0.337,-0.398C0.321,-0.415 0.3,-0.424 0.273,-0.424C0.24,-0.424 0.215,-0.412 0.198,-0.388C0.182,-0.364 0.173,-0.325 0.173,-0.271L0.173,-0.257C0.173,-0.202 0.182,-0.163 0.198,-0.14C0.215,-0.116 0.24,-0.104 0.274,-0.104Z" style="fill:rgb(102,252,241);fill-rule:nonzero;"/>
                </g>
                <g transform="matrix(98.613,0,0,98.613,477.77,134.035)">
                    <path d="M0.192,-0.471C0.229,-0.516 0.276,-0.538 0.333,-0.538C0.448,-0.538 0.506,-0.472 0.507,-0.338L0.507,-0L0.366,-0L0.366,-0.334C0.366,-0.365 0.36,-0.387 0.347,-0.402C0.334,-0.416 0.312,-0.423 0.282,-0.423C0.24,-0.423 0.21,-0.407 0.192,-0.375L0.192,-0L0.051,-0L0.051,-0.75L0.192,-0.75L0.192,-0.471Z" style="fill:rgb(102,252,241);fill-rule:nonzero;"/>
                </g>
                <g transform="matrix(98.613,0,0,98.613,532.951,134.035)">
                    <path d="M0.36,-0C0.354,-0.013 0.349,-0.028 0.346,-0.047C0.312,-0.009 0.268,0.01 0.213,0.01C0.161,0.01 0.118,-0.005 0.084,-0.035C0.05,-0.065 0.033,-0.103 0.033,-0.148C0.033,-0.204 0.054,-0.247 0.095,-0.277C0.137,-0.307 0.197,-0.322 0.275,-0.323L0.34,-0.323L0.34,-0.353C0.34,-0.377 0.334,-0.397 0.322,-0.412C0.309,-0.426 0.289,-0.434 0.262,-0.434C0.238,-0.434 0.22,-0.428 0.206,-0.417C0.193,-0.405 0.186,-0.389 0.186,-0.37L0.045,-0.37C0.045,-0.4 0.054,-0.429 0.073,-0.455C0.092,-0.481 0.119,-0.501 0.153,-0.516C0.188,-0.531 0.227,-0.538 0.27,-0.538C0.335,-0.538 0.386,-0.522 0.425,-0.489C0.463,-0.456 0.482,-0.41 0.482,-0.351L0.482,-0.122C0.482,-0.072 0.489,-0.034 0.503,-0.008L0.503,-0L0.36,-0ZM0.244,-0.098C0.264,-0.098 0.284,-0.103 0.301,-0.112C0.319,-0.121 0.332,-0.134 0.34,-0.149L0.34,-0.24L0.288,-0.24C0.217,-0.24 0.179,-0.216 0.175,-0.167L0.174,-0.159C0.174,-0.141 0.181,-0.127 0.193,-0.115C0.205,-0.104 0.222,-0.098 0.244,-0.098Z" style="fill:rgb(102,252,241);fill-rule:nonzero;"/>
                </g>
                <g transform="matrix(98.613,0,0,98.613,585.821,134.035)">
                    <path d="M0.351,-0.396C0.332,-0.399 0.315,-0.4 0.3,-0.4C0.247,-0.4 0.212,-0.382 0.195,-0.346L0.195,-0L0.054,-0L0.054,-0.528L0.188,-0.528L0.191,-0.465C0.22,-0.514 0.259,-0.538 0.309,-0.538C0.325,-0.538 0.339,-0.536 0.353,-0.532L0.351,-0.396Z" style="fill:rgb(102,252,241);fill-rule:nonzero;"/>
                </g>
                <g transform="matrix(98.613,0,0,98.613,622.655,134.035)">
                    <path d="M0.251,-0.2L0.349,-0.528L0.5,-0.528L0.288,0.082L0.276,0.11C0.245,0.179 0.193,0.213 0.12,0.213C0.1,0.213 0.079,0.21 0.058,0.204L0.058,0.097L0.079,0.098C0.106,0.098 0.126,0.094 0.139,0.085C0.152,0.077 0.162,0.064 0.17,0.045L0.187,0.001L0.001,-0.528L0.153,-0.528L0.251,-0.2Z" style="fill:rgb(102,252,241);fill-rule:nonzero;"/>
                </g>
            </g>
            <g>
                <g transform="matrix(98.613,0,0,98.613,232.802,232.648)">
                    <path d="M0.432,-0.187C0.432,-0.214 0.422,-0.235 0.403,-0.25C0.383,-0.265 0.348,-0.281 0.297,-0.297C0.247,-0.314 0.206,-0.33 0.177,-0.346C0.096,-0.389 0.056,-0.448 0.056,-0.522C0.056,-0.56 0.066,-0.595 0.088,-0.625C0.11,-0.655 0.141,-0.678 0.181,-0.695C0.222,-0.712 0.267,-0.721 0.318,-0.721C0.369,-0.721 0.414,-0.712 0.454,-0.693C0.493,-0.675 0.524,-0.649 0.546,-0.615C0.568,-0.582 0.579,-0.544 0.579,-0.501L0.433,-0.501C0.433,-0.534 0.422,-0.559 0.402,-0.577C0.381,-0.595 0.353,-0.604 0.315,-0.604C0.28,-0.604 0.252,-0.596 0.232,-0.581C0.212,-0.566 0.202,-0.546 0.202,-0.521C0.202,-0.498 0.214,-0.479 0.237,-0.463C0.26,-0.448 0.295,-0.433 0.34,-0.419C0.423,-0.394 0.484,-0.363 0.522,-0.326C0.56,-0.289 0.579,-0.243 0.579,-0.188C0.579,-0.126 0.556,-0.078 0.509,-0.043C0.463,-0.008 0.4,0.01 0.321,0.01C0.267,0.01 0.217,-0 0.172,-0.02C0.127,-0.04 0.093,-0.068 0.069,-0.103C0.045,-0.137 0.034,-0.178 0.034,-0.224L0.181,-0.224C0.181,-0.145 0.228,-0.106 0.321,-0.106C0.356,-0.106 0.383,-0.113 0.403,-0.127C0.422,-0.141 0.432,-0.161 0.432,-0.187Z" style="fill:rgb(102,252,241);fill-rule:nonzero;"/>
                </g>
                <g transform="matrix(98.613,0,0,98.613,293.424,232.648)">
                    <path d="M0.223,-0.658L0.223,-0.528L0.313,-0.528L0.313,-0.425L0.223,-0.425L0.223,-0.161C0.223,-0.142 0.227,-0.128 0.234,-0.119C0.242,-0.111 0.256,-0.106 0.277,-0.106C0.293,-0.106 0.307,-0.108 0.319,-0.11L0.319,-0.003C0.291,0.006 0.263,0.01 0.233,0.01C0.134,0.01 0.084,-0.04 0.082,-0.14L0.082,-0.425L0.005,-0.425L0.005,-0.528L0.082,-0.528L0.082,-0.658L0.223,-0.658Z" style="fill:rgb(102,252,241);fill-rule:nonzero;"/>
                </g>
                <g transform="matrix(98.613,0,0,98.613,326.744,232.648)">
                    <path d="M0.351,-0.396C0.332,-0.399 0.315,-0.4 0.3,-0.4C0.247,-0.4 0.212,-0.382 0.195,-0.346L0.195,-0L0.054,-0L0.054,-0.528L0.188,-0.528L0.191,-0.465C0.22,-0.514 0.259,-0.538 0.309,-0.538C0.325,-0.538 0.339,-0.536 0.353,-0.532L0.351,-0.396Z" style="fill:rgb(102,252,241);fill-rule:nonzero;"/>
                </g>
                <g transform="matrix(98.613,0,0,98.613,361.268,232.648)">
                    <path d="M0.36,-0C0.354,-0.013 0.349,-0.028 0.346,-0.047C0.312,-0.009 0.268,0.01 0.213,0.01C0.161,0.01 0.118,-0.005 0.084,-0.035C0.05,-0.065 0.033,-0.103 0.033,-0.148C0.033,-0.204 0.054,-0.247 0.095,-0.277C0.137,-0.307 0.197,-0.322 0.275,-0.323L0.34,-0.323L0.34,-0.353C0.34,-0.377 0.334,-0.397 0.322,-0.412C0.309,-0.426 0.289,-0.434 0.262,-0.434C0.238,-0.434 0.22,-0.428 0.206,-0.417C0.193,-0.405 0.186,-0.389 0.186,-0.37L0.045,-0.37C0.045,-0.4 0.054,-0.429 0.073,-0.455C0.092,-0.481 0.119,-0.501 0.153,-0.516C0.188,-0.531 0.227,-0.538 0.27,-0.538C0.335,-0.538 0.386,-0.522 0.425,-0.489C0.463,-0.456 0.482,-0.41 0.482,-0.351L0.482,-0.122C0.482,-0.072 0.489,-0.034 0.503,-0.008L0.503,-0L0.36,-0ZM0.244,-0.098C0.264,-0.098 0.284,-0.103 0.301,-0.112C0.319,-0.121 0.332,-0.134 0.34,-0.149L0.34,-0.24L0.288,-0.24C0.217,-0.24 0.179,-0.216 0.175,-0.167L0.174,-0.159C0.174,-0.141 0.181,-0.127 0.193,-0.115C0.205,-0.104 0.222,-0.098 0.244,-0.098Z" style="fill:rgb(102,252,241);fill-rule:nonzero;"/>
                </g>
                <g transform="matrix(98.613,0,0,98.613,414.138,232.648)">
                    <path d="M0.184,-0.528L0.188,-0.467C0.226,-0.514 0.277,-0.538 0.34,-0.538C0.396,-0.538 0.438,-0.522 0.465,-0.489C0.493,-0.456 0.507,-0.407 0.507,-0.341L0.507,-0L0.366,-0L0.366,-0.338C0.366,-0.368 0.36,-0.39 0.347,-0.403C0.334,-0.417 0.312,-0.423 0.282,-0.423C0.242,-0.423 0.212,-0.406 0.192,-0.373L0.192,-0L0.051,-0L0.051,-0.528L0.184,-0.528Z" style="fill:rgb(102,252,241);fill-rule:nonzero;"/>
                </g>
                <g transform="matrix(98.613,0,0,98.613,469.367,232.648)">
                    <path d="M0.034,-0.268C0.034,-0.349 0.053,-0.414 0.092,-0.464C0.13,-0.513 0.182,-0.538 0.248,-0.538C0.306,-0.538 0.351,-0.518 0.383,-0.479L0.389,-0.528L0.517,-0.528L0.517,-0.018C0.517,0.029 0.506,0.069 0.485,0.103C0.464,0.137 0.435,0.163 0.396,0.181C0.358,0.199 0.314,0.208 0.263,0.208C0.224,0.208 0.186,0.2 0.149,0.185C0.113,0.169 0.085,0.149 0.066,0.125L0.128,0.039C0.164,0.078 0.206,0.098 0.256,0.098C0.294,0.098 0.323,0.088 0.344,0.068C0.365,0.048 0.375,0.02 0.375,-0.017L0.375,-0.045C0.342,-0.009 0.3,0.01 0.247,0.01C0.183,0.01 0.132,-0.015 0.093,-0.065C0.053,-0.114 0.034,-0.18 0.034,-0.262L0.034,-0.268ZM0.175,-0.258C0.175,-0.21 0.184,-0.172 0.204,-0.145C0.223,-0.118 0.249,-0.104 0.283,-0.104C0.326,-0.104 0.356,-0.121 0.375,-0.153L0.375,-0.375C0.356,-0.407 0.326,-0.423 0.284,-0.423C0.25,-0.423 0.223,-0.41 0.204,-0.382C0.184,-0.354 0.175,-0.313 0.175,-0.258Z" style="fill:rgb(102,252,241);fill-rule:nonzero;"/>
                </g>
                <g transform="matrix(98.613,0,0,98.613,525.655,232.648)">
                    <path d="M0.297,0.01C0.22,0.01 0.157,-0.014 0.108,-0.062C0.059,-0.109 0.035,-0.172 0.035,-0.251L0.035,-0.265C0.035,-0.318 0.045,-0.366 0.066,-0.407C0.086,-0.449 0.115,-0.482 0.153,-0.504C0.191,-0.527 0.234,-0.538 0.282,-0.538C0.354,-0.538 0.411,-0.515 0.452,-0.47C0.494,-0.424 0.515,-0.36 0.515,-0.276L0.515,-0.218L0.178,-0.218C0.183,-0.184 0.197,-0.156 0.219,-0.135C0.242,-0.114 0.271,-0.104 0.307,-0.104C0.361,-0.104 0.403,-0.124 0.434,-0.163L0.503,-0.085C0.482,-0.056 0.454,-0.032 0.417,-0.015C0.381,0.001 0.341,0.01 0.297,0.01ZM0.281,-0.424C0.253,-0.424 0.231,-0.414 0.213,-0.396C0.196,-0.377 0.185,-0.35 0.18,-0.314L0.376,-0.314L0.376,-0.326C0.375,-0.357 0.367,-0.381 0.351,-0.398C0.334,-0.415 0.311,-0.424 0.281,-0.424Z" style="fill:rgb(102,252,241);fill-rule:nonzero;"/>
                </g>
                <g transform="matrix(98.613,0,0,98.613,578.958,232.648)">
                    <path d="M0.514,-0.192L0.583,-0.528L0.719,-0.528L0.584,-0L0.466,-0L0.366,-0.333L0.266,-0L0.148,-0L0.014,-0.528L0.15,-0.528L0.219,-0.192L0.315,-0.528L0.417,-0.528L0.514,-0.192Z" style="fill:rgb(102,252,241);fill-rule:nonzero;"/>
                </g>
                <g transform="matrix(98.613,0,0,98.613,651.425,232.648)">
                    <path d="M0.36,-0C0.354,-0.013 0.349,-0.028 0.346,-0.047C0.312,-0.009 0.268,0.01 0.213,0.01C0.161,0.01 0.118,-0.005 0.084,-0.035C0.05,-0.065 0.033,-0.103 0.033,-0.148C0.033,-0.204 0.054,-0.247 0.095,-0.277C0.137,-0.307 0.197,-0.322 0.275,-0.323L0.34,-0.323L0.34,-0.353C0.34,-0.377 0.334,-0.397 0.322,-0.412C0.309,-0.426 0.289,-0.434 0.262,-0.434C0.238,-0.434 0.22,-0.428 0.206,-0.417C0.193,-0.405 0.186,-0.389 0.186,-0.37L0.045,-0.37C0.045,-0.4 0.054,-0.429 0.073,-0.455C0.092,-0.481 0.119,-0.501 0.153,-0.516C0.188,-0.531 0.227,-0.538 0.27,-0.538C0.335,-0.538 0.386,-0.522 0.425,-0.489C0.463,-0.456 0.482,-0.41 0.482,-0.351L0.482,-0.122C0.482,-0.072 0.489,-0.034 0.503,-0.008L0.503,-0L0.36,-0ZM0.244,-0.098C0.264,-0.098 0.284,-0.103 0.301,-0.112C0.319,-0.121 0.332,-0.134 0.34,-0.149L0.34,-0.24L0.288,-0.24C0.217,-0.24 0.179,-0.216 0.175,-0.167L0.174,-0.159C0.174,-0.141 0.181,-0.127 0.193,-0.115C0.205,-0.104 0.222,-0.098 0.244,-0.098Z" style="fill:rgb(102,252,241);fill-rule:nonzero;"/>
                </g>
                <g transform="matrix(98.613,0,0,98.613,703.572,232.648)">
                    <path d="M0.251,-0.2L0.349,-0.528L0.5,-0.528L0.288,0.082L0.276,0.11C0.245,0.179 0.193,0.213 0.12,0.213C0.1,0.213 0.079,0.21 0.058,0.204L0.058,0.097L0.079,0.098C0.106,0.098 0.126,0.094 0.139,0.085C0.152,0.077 0.162,0.064 0.17,0.045L0.187,0.001L0.001,-0.528L0.153,-0.528L0.251,-0.2Z" style="fill:rgb(102,252,241);fill-rule:nonzero;"/>
                </g>
            </g>
        </g>
    </g>
</svg>
