<?xml version="1.0" encoding="UTF-8" standalone="no"?>
<!DOCTYPE svg PUBLIC "-//W3C//DTD SVG 1.1//EN" "http://www.w3.org/Graphics/SVG/1.1/DTD/svg11.dtd">
<svg width="100%" height="100%" viewBox="0 0 900 401" version="1.1" xmlns="http://www.w3.org/2000/svg" xmlns:xlink="http://www.w3.org/1999/xlink" xml:space="preserve" xmlns:serif="http://www.serif.com/" style="fill-rule:evenodd;clip-rule:evenodd;stroke-linejoin:round;stroke-miterlimit:2;">
    <g transform="matrix(2.33074,0,0,10.5842,-627.816,-1180.88)">
        <g transform="matrix(0.20825,0,0,0.0458583,167.754,112.441)">
            <g transform="matrix(137.237,0,0,137.237,480.486,804.993)">
                <path d="M0.495,-0.184C0.495,-0.125 0.473,-0.077 0.429,-0.042C0.386,-0.008 0.327,0.01 0.255,0.01C0.168,0.01 0.101,0 0.054,-0.019L0.054,-0.069C0.106,-0.047 0.171,-0.036 0.251,-0.036C0.31,-0.036 0.356,-0.05 0.39,-0.076C0.425,-0.103 0.442,-0.139 0.442,-0.182C0.442,-0.209 0.436,-0.232 0.425,-0.249C0.413,-0.267 0.395,-0.283 0.369,-0.298C0.343,-0.313 0.306,-0.328 0.256,-0.345C0.183,-0.37 0.133,-0.397 0.105,-0.427C0.077,-0.456 0.063,-0.494 0.063,-0.543C0.063,-0.596 0.084,-0.64 0.126,-0.674C0.168,-0.707 0.221,-0.724 0.287,-0.724C0.354,-0.724 0.417,-0.711 0.476,-0.686L0.458,-0.643C0.399,-0.668 0.342,-0.68 0.288,-0.68C0.235,-0.68 0.193,-0.668 0.162,-0.644C0.131,-0.619 0.115,-0.586 0.115,-0.544C0.115,-0.518 0.12,-0.496 0.13,-0.479C0.139,-0.462 0.155,-0.447 0.177,-0.433C0.199,-0.42 0.236,-0.404 0.289,-0.385C0.345,-0.366 0.387,-0.347 0.415,-0.329C0.443,-0.311 0.463,-0.29 0.476,-0.267C0.489,-0.244 0.495,-0.217 0.495,-0.184Z" style="fill:rgb(197,198,199);fill-rule:nonzero;"/>
            </g>
            <g transform="matrix(137.237,0,0,137.237,555.269,804.993)">
                <path d="M0.491,-0L0.101,-0L0.101,-0.714L0.491,-0.714L0.491,-0.668L0.151,-0.668L0.151,-0.398L0.472,-0.398L0.472,-0.352L0.151,-0.352L0.151,-0.046L0.491,-0.046L0.491,-0Z" style="fill:rgb(197,198,199);fill-rule:nonzero;"/>
            </g>
            <g transform="matrix(137.237,0,0,137.237,630.991,804.993)">
                <path d="M0.62,-0L0.57,-0L0.147,-0.634L0.143,-0.634C0.147,-0.558 0.149,-0.501 0.149,-0.463L0.149,-0L0.101,-0L0.101,-0.714L0.151,-0.714L0.573,-0.081L0.576,-0.081C0.573,-0.14 0.572,-0.195 0.572,-0.248L0.572,-0.714L0.62,-0.714L0.62,-0Z" style="fill:rgb(197,198,199);fill-rule:nonzero;"/>
            </g>
            <g transform="matrix(137.237,0,0,137.237,729.964,804.993)">
                <rect x="0.101" y="-0.714" width="0.05" height="0.714" style="fill:rgb(197,198,199);fill-rule:nonzero;"/>
            </g>
            <g transform="matrix(137.237,0,0,137.237,764.542,804.993)">
                <path d="M0.701,-0.358C0.701,-0.245 0.673,-0.155 0.616,-0.089C0.56,-0.023 0.481,0.01 0.382,0.01C0.283,0.01 0.205,-0.023 0.148,-0.089C0.091,-0.155 0.063,-0.245 0.063,-0.359C0.063,-0.472 0.092,-0.562 0.149,-0.627C0.206,-0.692 0.284,-0.725 0.383,-0.725C0.482,-0.725 0.56,-0.692 0.617,-0.627C0.673,-0.561 0.701,-0.472 0.701,-0.358ZM0.117,-0.358C0.117,-0.256 0.14,-0.177 0.186,-0.121C0.231,-0.065 0.297,-0.037 0.382,-0.037C0.468,-0.037 0.533,-0.065 0.579,-0.12C0.624,-0.175 0.647,-0.255 0.647,-0.358C0.647,-0.461 0.624,-0.54 0.579,-0.594C0.533,-0.649 0.468,-0.677 0.383,-0.677C0.298,-0.677 0.232,-0.649 0.186,-0.594C0.14,-0.538 0.117,-0.46 0.117,-0.358Z" style="fill:rgb(197,198,199);fill-rule:nonzero;"/>
            </g>
            <g transform="matrix(137.237,0,0,137.237,869.412,804.993)">
                <path d="M0.151,-0.311L0.151,-0L0.101,-0L0.101,-0.714L0.271,-0.714C0.36,-0.714 0.425,-0.698 0.467,-0.665C0.51,-0.632 0.531,-0.583 0.531,-0.517C0.531,-0.469 0.518,-0.429 0.493,-0.396C0.468,-0.363 0.429,-0.34 0.378,-0.325L0.572,-0L0.512,-0L0.328,-0.311L0.151,-0.311ZM0.151,-0.354L0.287,-0.354C0.347,-0.354 0.394,-0.367 0.427,-0.394C0.46,-0.421 0.477,-0.461 0.477,-0.513C0.477,-0.568 0.461,-0.607 0.428,-0.632C0.396,-0.657 0.343,-0.669 0.269,-0.669L0.151,-0.669L0.151,-0.354Z" style="fill:rgb(197,198,199);fill-rule:nonzero;"/>
            </g>
            <g transform="matrix(137.237,0,0,137.237,986.613,804.993)">
                <path d="M0.495,-0.184C0.495,-0.125 0.473,-0.077 0.429,-0.042C0.386,-0.008 0.327,0.01 0.255,0.01C0.168,0.01 0.101,0 0.054,-0.019L0.054,-0.069C0.106,-0.047 0.171,-0.036 0.251,-0.036C0.31,-0.036 0.356,-0.05 0.39,-0.076C0.425,-0.103 0.442,-0.139 0.442,-0.182C0.442,-0.209 0.436,-0.232 0.425,-0.249C0.413,-0.267 0.395,-0.283 0.369,-0.298C0.343,-0.313 0.306,-0.328 0.256,-0.345C0.183,-0.37 0.133,-0.397 0.105,-0.427C0.077,-0.456 0.063,-0.494 0.063,-0.543C0.063,-0.596 0.084,-0.64 0.126,-0.674C0.168,-0.707 0.221,-0.724 0.287,-0.724C0.354,-0.724 0.417,-0.711 0.476,-0.686L0.458,-0.643C0.399,-0.668 0.342,-0.68 0.288,-0.68C0.235,-0.68 0.193,-0.668 0.162,-0.644C0.131,-0.619 0.115,-0.586 0.115,-0.544C0.115,-0.518 0.12,-0.496 0.13,-0.479C0.139,-0.462 0.155,-0.447 0.177,-0.433C0.199,-0.42 0.236,-0.404 0.289,-0.385C0.345,-0.366 0.387,-0.347 0.415,-0.329C0.443,-0.311 0.463,-0.29 0.476,-0.267C0.489,-0.244 0.495,-0.217 0.495,-0.184Z" style="fill:rgb(197,198,199);fill-rule:nonzero;"/>
            </g>
            <g transform="matrix(137.237,0,0,137.237,1061.4,804.993)">
                <path d="M0.701,-0.358C0.701,-0.245 0.673,-0.155 0.616,-0.089C0.56,-0.023 0.481,0.01 0.382,0.01C0.283,0.01 0.205,-0.023 0.148,-0.089C0.091,-0.155 0.063,-0.245 0.063,-0.359C0.063,-0.472 0.092,-0.562 0.149,-0.627C0.206,-0.692 0.284,-0.725 0.383,-0.725C0.482,-0.725 0.56,-0.692 0.617,-0.627C0.673,-0.561 0.701,-0.472 0.701,-0.358ZM0.117,-0.358C0.117,-0.256 0.14,-0.177 0.186,-0.121C0.231,-0.065 0.297,-0.037 0.382,-0.037C0.468,-0.037 0.533,-0.065 0.579,-0.12C0.624,-0.175 0.647,-0.255 0.647,-0.358C0.647,-0.461 0.624,-0.54 0.579,-0.594C0.533,-0.649 0.468,-0.677 0.383,-0.677C0.298,-0.677 0.232,-0.649 0.186,-0.594C0.14,-0.538 0.117,-0.46 0.117,-0.358Z" style="fill:rgb(197,198,199);fill-rule:nonzero;"/>
            </g>
            <g transform="matrix(137.237,0,0,137.237,1166.27,804.993)">
                <path d="M0.151,-0L0.101,-0L0.101,-0.714L0.492,-0.714L0.492,-0.668L0.151,-0.668L0.151,-0.365L0.473,-0.365L0.473,-0.319L0.151,-0.319L0.151,-0Z" style="fill:rgb(197,198,199);fill-rule:nonzero;"/>
            </g>
            <g transform="matrix(137.237,0,0,137.237,1235.15,804.993)">
                <path d="M0.287,-0L0.237,-0L0.237,-0.667L0.005,-0.667L0.005,-0.714L0.519,-0.714L0.519,-0.667L0.287,-0.667L0.287,-0Z" style="fill:rgb(197,198,199);fill-rule:nonzero;"/>
            </g>
            <g transform="matrix(137.237,0,0,137.237,1307.05,804.993)">
                <path d="M0.67,-0L0.629,-0L0.472,-0.551C0.459,-0.596 0.449,-0.633 0.443,-0.662C0.438,-0.634 0.43,-0.601 0.421,-0.564C0.411,-0.528 0.359,-0.34 0.263,-0L0.221,-0L0.025,-0.714L0.077,-0.714L0.202,-0.254C0.207,-0.235 0.212,-0.218 0.216,-0.202C0.22,-0.187 0.224,-0.172 0.227,-0.158C0.231,-0.144 0.234,-0.131 0.237,-0.118C0.239,-0.105 0.242,-0.092 0.244,-0.079C0.252,-0.123 0.269,-0.191 0.294,-0.281L0.416,-0.714L0.471,-0.714L0.614,-0.217C0.631,-0.16 0.643,-0.113 0.65,-0.078C0.654,-0.102 0.66,-0.126 0.666,-0.153C0.673,-0.179 0.723,-0.366 0.817,-0.714L0.867,-0.714L0.67,-0Z" style="fill:rgb(197,198,199);fill-rule:nonzero;"/>
            </g>
            <g transform="matrix(137.237,0,0,137.237,1429.48,804.993)">
                <path d="M0.445,-0.252L0.155,-0.252L0.055,-0L0,-0L0.287,-0.717L0.319,-0.717L0.6,-0L0.544,-0L0.445,-0.252ZM0.173,-0.297L0.428,-0.297L0.331,-0.554C0.323,-0.574 0.313,-0.602 0.302,-0.638C0.293,-0.607 0.283,-0.579 0.273,-0.553L0.173,-0.297Z" style="fill:rgb(197,198,199);fill-rule:nonzero;"/>
            </g>
            <g transform="matrix(137.237,0,0,137.237,1511.84,804.993)">
                <path d="M0.151,-0.311L0.151,-0L0.101,-0L0.101,-0.714L0.271,-0.714C0.36,-0.714 0.425,-0.698 0.467,-0.665C0.51,-0.632 0.531,-0.583 0.531,-0.517C0.531,-0.469 0.518,-0.429 0.493,-0.396C0.468,-0.363 0.429,-0.34 0.378,-0.325L0.572,-0L0.512,-0L0.328,-0.311L0.151,-0.311ZM0.151,-0.354L0.287,-0.354C0.347,-0.354 0.394,-0.367 0.427,-0.394C0.46,-0.421 0.477,-0.461 0.477,-0.513C0.477,-0.568 0.461,-0.607 0.428,-0.632C0.396,-0.657 0.343,-0.669 0.269,-0.669L0.151,-0.669L0.151,-0.354Z" style="fill:rgb(197,198,199);fill-rule:nonzero;"/>
            </g>
            <g transform="matrix(137.237,0,0,137.237,1593.39,804.993)">
                <path d="M0.491,-0L0.101,-0L0.101,-0.714L0.491,-0.714L0.491,-0.668L0.151,-0.668L0.151,-0.398L0.472,-0.398L0.472,-0.352L0.151,-0.352L0.151,-0.046L0.491,-0.046L0.491,-0Z" style="fill:rgb(197,198,199);fill-rule:nonzero;"/>
            </g>
            <g transform="matrix(137.237,0,0,137.237,1704.76,804.993)">
                <path d="M0.491,-0L0.101,-0L0.101,-0.714L0.491,-0.714L0.491,-0.668L0.151,-0.668L0.151,-0.398L0.472,-0.398L0.472,-0.352L0.151,-0.352L0.151,-0.046L0.491,-0.046L0.491,-0Z" style="fill:rgb(197,198,199);fill-rule:nonzero;"/>
            </g>
            <g transform="matrix(137.237,0,0,137.237,1780.48,804.993)">
                <path d="M0.62,-0L0.57,-0L0.147,-0.634L0.143,-0.634C0.147,-0.558 0.149,-0.501 0.149,-0.463L0.149,-0L0.101,-0L0.101,-0.714L0.151,-0.714L0.573,-0.081L0.576,-0.081C0.573,-0.14 0.572,-0.195 0.572,-0.248L0.572,-0.714L0.62,-0.714L0.62,-0Z" style="fill:rgb(197,198,199);fill-rule:nonzero;"/>
            </g>
            <g transform="matrix(137.237,0,0,137.237,1879.45,804.993)">
                <path d="M0.382,-0.36L0.645,-0.36L0.645,-0.034C0.576,-0.005 0.498,0.01 0.412,0.01C0.299,0.01 0.213,-0.022 0.153,-0.086C0.093,-0.149 0.063,-0.239 0.063,-0.356C0.063,-0.429 0.078,-0.493 0.108,-0.549C0.137,-0.605 0.18,-0.649 0.236,-0.679C0.291,-0.71 0.355,-0.725 0.427,-0.725C0.505,-0.725 0.574,-0.711 0.636,-0.682L0.616,-0.637C0.554,-0.666 0.49,-0.68 0.424,-0.68C0.33,-0.68 0.255,-0.651 0.2,-0.593C0.145,-0.535 0.117,-0.457 0.117,-0.358C0.117,-0.25 0.143,-0.17 0.196,-0.115C0.248,-0.061 0.325,-0.034 0.427,-0.034C0.493,-0.034 0.548,-0.043 0.594,-0.062L0.594,-0.313L0.382,-0.313L0.382,-0.36Z" style="fill:rgb(197,198,199);fill-rule:nonzero;"/>
            </g>
            <g transform="matrix(137.237,0,0,137.237,1978.7,804.993)">
                <rect x="0.101" y="-0.714" width="0.05" height="0.714" style="fill:rgb(197,198,199);fill-rule:nonzero;"/>
            </g>
            <g transform="matrix(137.237,0,0,137.237,2013.27,804.993)">
                <path d="M0.62,-0L0.57,-0L0.147,-0.634L0.143,-0.634C0.147,-0.558 0.149,-0.501 0.149,-0.463L0.149,-0L0.101,-0L0.101,-0.714L0.151,-0.714L0.573,-0.081L0.576,-0.081C0.573,-0.14 0.572,-0.195 0.572,-0.248L0.572,-0.714L0.62,-0.714L0.62,-0Z" style="fill:rgb(197,198,199);fill-rule:nonzero;"/>
            </g>
            <g transform="matrix(137.237,0,0,137.237,2112.25,804.993)">
                <path d="M0.491,-0L0.101,-0L0.101,-0.714L0.491,-0.714L0.491,-0.668L0.151,-0.668L0.151,-0.398L0.472,-0.398L0.472,-0.352L0.151,-0.352L0.151,-0.046L0.491,-0.046L0.491,-0Z" style="fill:rgb(197,198,199);fill-rule:nonzero;"/>
            </g>
            <g transform="matrix(137.237,0,0,137.237,2187.97,804.993)">
                <path d="M0.491,-0L0.101,-0L0.101,-0.714L0.491,-0.714L0.491,-0.668L0.151,-0.668L0.151,-0.398L0.472,-0.398L0.472,-0.352L0.151,-0.352L0.151,-0.046L0.491,-0.046L0.491,-0Z" style="fill:rgb(197,198,199);fill-rule:nonzero;"/>
            </g>
            <g transform="matrix(137.237,0,0,137.237,2263.69,804.993)">
                <path d="M0.151,-0.311L0.151,-0L0.101,-0L0.101,-0.714L0.271,-0.714C0.36,-0.714 0.425,-0.698 0.467,-0.665C0.51,-0.632 0.531,-0.583 0.531,-0.517C0.531,-0.469 0.518,-0.429 0.493,-0.396C0.468,-0.363 0.429,-0.34 0.378,-0.325L0.572,-0L0.512,-0L0.328,-0.311L0.151,-0.311ZM0.151,-0.354L0.287,-0.354C0.347,-0.354 0.394,-0.367 0.427,-0.394C0.46,-0.421 0.477,-0.461 0.477,-0.513C0.477,-0.568 0.461,-0.607 0.428,-0.632C0.396,-0.657 0.343,-0.669 0.269,-0.669L0.151,-0.669L0.151,-0.354Z" style="fill:rgb(197,198,199);fill-rule:nonzero;"/>
            </g>
        </g>
        <g transform="matrix(0.132323,0,0,0.0291386,251.207,101.807)">
            <g transform="matrix(498.162,0,0,498.162,597.928,713.517)">
                <path d="M0.555,-0L0.024,-0L0.024,-0.098L0.366,-0.589L0.033,-0.589L0.033,-0.714L0.546,-0.714L0.546,-0.616L0.204,-0.125L0.555,-0.125L0.555,-0Z" style="fill:rgb(102,252,241);fill-rule:nonzero;"/>
            </g>
            <g transform="matrix(498.162,0,0,498.162,886.415,713.517)">
                <path d="M0.425,-0L0.396,-0.074L0.392,-0.074C0.367,-0.043 0.341,-0.021 0.315,-0.009C0.288,0.004 0.254,0.01 0.211,0.01C0.159,0.01 0.117,-0.005 0.087,-0.035C0.057,-0.065 0.042,-0.108 0.042,-0.163C0.042,-0.221 0.062,-0.264 0.103,-0.291C0.143,-0.319 0.204,-0.334 0.286,-0.337L0.381,-0.34L0.381,-0.364C0.381,-0.419 0.353,-0.447 0.296,-0.447C0.252,-0.447 0.201,-0.434 0.142,-0.407L0.093,-0.508C0.156,-0.541 0.225,-0.557 0.302,-0.557C0.375,-0.557 0.431,-0.541 0.47,-0.509C0.509,-0.477 0.529,-0.429 0.529,-0.364L0.529,-0L0.425,-0ZM0.381,-0.253L0.323,-0.251C0.28,-0.25 0.248,-0.242 0.227,-0.228C0.205,-0.213 0.195,-0.191 0.195,-0.162C0.195,-0.12 0.219,-0.099 0.267,-0.099C0.302,-0.099 0.329,-0.109 0.35,-0.129C0.371,-0.149 0.381,-0.175 0.381,-0.208L0.381,-0.253Z" style="fill:rgb(102,252,241);fill-rule:nonzero;"/>
            </g>
            <g transform="matrix(498.162,0,0,498.162,1187.31,713.517)">
                <path d="M0.3,0.01C0.13,0.01 0.045,-0.083 0.045,-0.27C0.045,-0.363 0.068,-0.434 0.114,-0.483C0.16,-0.532 0.227,-0.556 0.313,-0.556C0.376,-0.556 0.433,-0.544 0.483,-0.519L0.439,-0.404C0.416,-0.413 0.394,-0.421 0.374,-0.427C0.353,-0.433 0.333,-0.436 0.313,-0.436C0.236,-0.436 0.197,-0.381 0.197,-0.271C0.197,-0.164 0.236,-0.111 0.313,-0.111C0.342,-0.111 0.368,-0.115 0.393,-0.122C0.417,-0.13 0.441,-0.142 0.466,-0.158L0.466,-0.031C0.442,-0.015 0.417,-0.005 0.393,0.001C0.368,0.007 0.337,0.01 0.3,0.01Z" style="fill:rgb(102,252,241);fill-rule:nonzero;"/>
            </g>
            <g transform="matrix(498.162,0,0,498.162,1443.44,713.517)">
                <path d="M0.582,-0L0.433,-0L0.433,-0.319C0.433,-0.398 0.404,-0.437 0.345,-0.437C0.304,-0.437 0.273,-0.423 0.255,-0.395C0.236,-0.366 0.227,-0.32 0.227,-0.257L0.227,-0L0.078,-0L0.078,-0.76L0.227,-0.76L0.227,-0.605C0.227,-0.593 0.226,-0.565 0.224,-0.52L0.22,-0.476L0.228,-0.476C0.261,-0.529 0.314,-0.556 0.386,-0.556C0.45,-0.556 0.499,-0.539 0.532,-0.504C0.565,-0.47 0.582,-0.42 0.582,-0.356L0.582,-0Z" style="fill:rgb(102,252,241);fill-rule:nonzero;"/>
            </g>
            <g transform="matrix(498.162,0,0,498.162,1770.85,713.517)">
                <path d="M0.425,-0L0.396,-0.074L0.392,-0.074C0.367,-0.043 0.341,-0.021 0.315,-0.009C0.288,0.004 0.254,0.01 0.211,0.01C0.159,0.01 0.117,-0.005 0.087,-0.035C0.057,-0.065 0.042,-0.108 0.042,-0.163C0.042,-0.221 0.062,-0.264 0.103,-0.291C0.143,-0.319 0.204,-0.334 0.286,-0.337L0.381,-0.34L0.381,-0.364C0.381,-0.419 0.353,-0.447 0.296,-0.447C0.252,-0.447 0.201,-0.434 0.142,-0.407L0.093,-0.508C0.156,-0.541 0.225,-0.557 0.302,-0.557C0.375,-0.557 0.431,-0.541 0.47,-0.509C0.509,-0.477 0.529,-0.429 0.529,-0.364L0.529,-0L0.425,-0ZM0.381,-0.253L0.323,-0.251C0.28,-0.25 0.248,-0.242 0.227,-0.228C0.205,-0.213 0.195,-0.191 0.195,-0.162C0.195,-0.12 0.219,-0.099 0.267,-0.099C0.302,-0.099 0.329,-0.109 0.35,-0.129C0.371,-0.149 0.381,-0.175 0.381,-0.208L0.381,-0.253Z" style="fill:rgb(102,252,241);fill-rule:nonzero;"/>
            </g>
            <g transform="matrix(498.162,0,0,498.162,2071.74,713.517)">
                <path d="M0.383,-0.556C0.403,-0.556 0.42,-0.555 0.433,-0.552L0.422,-0.412C0.41,-0.415 0.395,-0.417 0.378,-0.417C0.33,-0.417 0.293,-0.405 0.267,-0.38C0.24,-0.356 0.227,-0.322 0.227,-0.278L0.227,-0L0.078,-0L0.078,-0.546L0.191,-0.546L0.213,-0.454L0.22,-0.454C0.237,-0.485 0.26,-0.509 0.289,-0.528C0.318,-0.547 0.349,-0.556 0.383,-0.556Z" style="fill:rgb(102,252,241);fill-rule:nonzero;"/>
            </g>
            <g transform="matrix(498.162,0,0,498.162,2297.95,713.517)">
                <path d="M0,-0.546L0.163,-0.546L0.266,-0.239C0.275,-0.212 0.281,-0.181 0.284,-0.144L0.287,-0.144C0.291,-0.178 0.298,-0.209 0.308,-0.239L0.409,-0.546L0.569,-0.546L0.338,0.07C0.317,0.127 0.287,0.169 0.247,0.198C0.208,0.226 0.162,0.24 0.11,0.24C0.084,0.24 0.059,0.237 0.034,0.232L0.034,0.114C0.052,0.118 0.072,0.12 0.093,0.12C0.119,0.12 0.142,0.112 0.162,0.096C0.182,0.08 0.197,0.056 0.208,0.023L0.217,-0.004L0,-0.546Z" style="fill:rgb(102,252,241);fill-rule:nonzero;"/>
            </g>
            <g transform="matrix(498.162,0,0,498.162,123.848,1211.68)">
                <path d="M0.511,-0.198C0.511,-0.134 0.488,-0.083 0.442,-0.046C0.395,-0.009 0.331,0.01 0.248,0.01C0.172,0.01 0.104,-0.005 0.046,-0.033L0.046,-0.174C0.094,-0.152 0.135,-0.137 0.168,-0.128C0.202,-0.12 0.232,-0.115 0.26,-0.115C0.293,-0.115 0.318,-0.122 0.336,-0.134C0.354,-0.147 0.363,-0.166 0.363,-0.191C0.363,-0.205 0.359,-0.217 0.351,-0.228C0.343,-0.239 0.332,-0.25 0.317,-0.26C0.302,-0.27 0.271,-0.286 0.224,-0.308C0.181,-0.329 0.148,-0.348 0.126,-0.367C0.104,-0.386 0.087,-0.408 0.074,-0.433C0.061,-0.458 0.054,-0.487 0.054,-0.521C0.054,-0.584 0.076,-0.634 0.118,-0.67C0.161,-0.706 0.22,-0.724 0.296,-0.724C0.333,-0.724 0.368,-0.72 0.402,-0.711C0.436,-0.702 0.471,-0.69 0.508,-0.674L0.459,-0.556C0.421,-0.572 0.389,-0.583 0.365,-0.589C0.34,-0.595 0.315,-0.598 0.291,-0.598C0.262,-0.598 0.24,-0.591 0.225,-0.578C0.21,-0.565 0.202,-0.547 0.202,-0.526C0.202,-0.513 0.205,-0.501 0.211,-0.491C0.218,-0.481 0.227,-0.471 0.241,-0.462C0.254,-0.453 0.286,-0.436 0.337,-0.412C0.404,-0.38 0.449,-0.348 0.474,-0.316C0.499,-0.284 0.511,-0.245 0.511,-0.198Z" style="fill:rgb(102,252,241);fill-rule:nonzero;"/>
            </g>
            <g transform="matrix(498.162,0,0,498.162,398.226,1211.68)">
                <path d="M0.308,-0.109C0.334,-0.109 0.365,-0.115 0.402,-0.126L0.402,-0.015C0.365,0.001 0.319,0.01 0.265,0.01C0.206,0.01 0.162,-0.005 0.135,-0.035C0.108,-0.066 0.094,-0.111 0.094,-0.171L0.094,-0.434L0.023,-0.434L0.023,-0.497L0.105,-0.547L0.148,-0.662L0.243,-0.662L0.243,-0.546L0.396,-0.546L0.396,-0.434L0.243,-0.434L0.243,-0.171C0.243,-0.15 0.249,-0.134 0.261,-0.124C0.273,-0.114 0.289,-0.109 0.308,-0.109Z" style="fill:rgb(102,252,241);fill-rule:nonzero;"/>
            </g>
            <g transform="matrix(498.162,0,0,498.162,614.469,1211.68)">
                <path d="M0.383,-0.556C0.403,-0.556 0.42,-0.555 0.433,-0.552L0.422,-0.412C0.41,-0.415 0.395,-0.417 0.378,-0.417C0.33,-0.417 0.293,-0.405 0.267,-0.38C0.24,-0.356 0.227,-0.322 0.227,-0.278L0.227,-0L0.078,-0L0.078,-0.546L0.191,-0.546L0.213,-0.454L0.22,-0.454C0.237,-0.485 0.26,-0.509 0.289,-0.528C0.318,-0.547 0.349,-0.556 0.383,-0.556Z" style="fill:rgb(102,252,241);fill-rule:nonzero;"/>
            </g>
            <g transform="matrix(498.162,0,0,498.162,840.685,1211.68)">
                <path d="M0.425,-0L0.396,-0.074L0.392,-0.074C0.367,-0.043 0.341,-0.021 0.315,-0.009C0.288,0.004 0.254,0.01 0.211,0.01C0.159,0.01 0.117,-0.005 0.087,-0.035C0.057,-0.065 0.042,-0.108 0.042,-0.163C0.042,-0.221 0.062,-0.264 0.103,-0.291C0.143,-0.319 0.204,-0.334 0.286,-0.337L0.381,-0.34L0.381,-0.364C0.381,-0.419 0.353,-0.447 0.296,-0.447C0.252,-0.447 0.201,-0.434 0.142,-0.407L0.093,-0.508C0.156,-0.541 0.225,-0.557 0.302,-0.557C0.375,-0.557 0.431,-0.541 0.47,-0.509C0.509,-0.477 0.529,-0.429 0.529,-0.364L0.529,-0L0.425,-0ZM0.381,-0.253L0.323,-0.251C0.28,-0.25 0.248,-0.242 0.227,-0.228C0.205,-0.213 0.195,-0.191 0.195,-0.162C0.195,-0.12 0.219,-0.099 0.267,-0.099C0.302,-0.099 0.329,-0.109 0.35,-0.129C0.371,-0.149 0.381,-0.175 0.381,-0.208L0.381,-0.253Z" style="fill:rgb(102,252,241);fill-rule:nonzero;"/>
            </g>
            <g transform="matrix(498.162,0,0,498.162,1141.58,1211.68)">
                <path d="M0.582,-0L0.433,-0L0.433,-0.319C0.433,-0.358 0.426,-0.388 0.412,-0.407C0.398,-0.427 0.376,-0.437 0.345,-0.437C0.304,-0.437 0.273,-0.423 0.255,-0.395C0.236,-0.367 0.227,-0.321 0.227,-0.257L0.227,-0L0.078,-0L0.078,-0.546L0.192,-0.546L0.212,-0.476L0.22,-0.476C0.237,-0.502 0.26,-0.522 0.289,-0.536C0.318,-0.549 0.351,-0.556 0.388,-0.556C0.452,-0.556 0.5,-0.539 0.533,-0.505C0.566,-0.47 0.582,-0.421 0.582,-0.356L0.582,-0Z" style="fill:rgb(102,252,241);fill-rule:nonzero;"/>
            </g>
            <g transform="matrix(498.162,0,0,498.162,1468.98,1211.68)">
                <path d="M0.553,-0.546L0.553,-0.47L0.468,-0.448C0.483,-0.424 0.491,-0.396 0.491,-0.366C0.491,-0.308 0.471,-0.262 0.43,-0.229C0.389,-0.197 0.332,-0.18 0.26,-0.18L0.233,-0.182L0.211,-0.184C0.196,-0.172 0.188,-0.159 0.188,-0.145C0.188,-0.124 0.215,-0.113 0.27,-0.113L0.363,-0.113C0.423,-0.113 0.468,-0.1 0.5,-0.074C0.531,-0.049 0.547,-0.011 0.547,0.039C0.547,0.103 0.52,0.152 0.467,0.188C0.414,0.223 0.337,0.24 0.238,0.24C0.162,0.24 0.103,0.227 0.063,0.2C0.023,0.174 0.003,0.137 0.003,0.089C0.003,0.056 0.013,0.028 0.034,0.006C0.054,-0.016 0.084,-0.032 0.124,-0.041C0.109,-0.048 0.095,-0.058 0.084,-0.073C0.073,-0.088 0.067,-0.104 0.067,-0.12C0.067,-0.141 0.073,-0.158 0.085,-0.172C0.097,-0.186 0.114,-0.2 0.137,-0.213C0.109,-0.225 0.086,-0.245 0.069,-0.272C0.052,-0.3 0.044,-0.332 0.044,-0.369C0.044,-0.429 0.063,-0.475 0.102,-0.507C0.141,-0.54 0.196,-0.556 0.268,-0.556C0.283,-0.556 0.302,-0.555 0.323,-0.552C0.344,-0.549 0.357,-0.547 0.363,-0.546L0.553,-0.546ZM0.132,0.077C0.132,0.098 0.142,0.114 0.161,0.125C0.181,0.137 0.209,0.143 0.244,0.143C0.298,0.143 0.339,0.136 0.37,0.121C0.4,0.106 0.415,0.086 0.415,0.061C0.415,0.041 0.406,0.026 0.388,0.019C0.37,0.011 0.343,0.007 0.305,0.007L0.228,0.007C0.201,0.007 0.178,0.013 0.159,0.026C0.141,0.039 0.132,0.056 0.132,0.077ZM0.186,-0.367C0.186,-0.338 0.193,-0.314 0.206,-0.297C0.22,-0.28 0.24,-0.271 0.268,-0.271C0.296,-0.271 0.317,-0.28 0.33,-0.297C0.343,-0.314 0.349,-0.338 0.349,-0.367C0.349,-0.433 0.322,-0.466 0.268,-0.466C0.213,-0.466 0.186,-0.433 0.186,-0.367Z" style="fill:rgb(102,252,241);fill-rule:nonzero;"/>
            </g>
            <g transform="matrix(498.162,0,0,498.162,1750.41,1211.68)">
                <path d="M0.304,-0.45C0.273,-0.45 0.248,-0.44 0.23,-0.42C0.212,-0.4 0.202,-0.372 0.199,-0.335L0.408,-0.335C0.408,-0.372 0.398,-0.4 0.379,-0.42C0.361,-0.44 0.336,-0.45 0.304,-0.45ZM0.325,0.01C0.237,0.01 0.169,-0.014 0.119,-0.063C0.07,-0.111 0.045,-0.18 0.045,-0.269C0.045,-0.361 0.068,-0.431 0.114,-0.481C0.159,-0.531 0.222,-0.556 0.303,-0.556C0.38,-0.556 0.44,-0.534 0.483,-0.49C0.526,-0.446 0.548,-0.386 0.548,-0.308L0.548,-0.236L0.196,-0.236C0.197,-0.194 0.21,-0.16 0.233,-0.137C0.257,-0.113 0.29,-0.101 0.332,-0.101C0.365,-0.101 0.396,-0.104 0.425,-0.111C0.455,-0.118 0.485,-0.129 0.517,-0.144L0.517,-0.029C0.491,-0.016 0.463,-0.006 0.434,0C0.404,0.007 0.368,0.01 0.325,0.01Z" style="fill:rgb(102,252,241);fill-rule:nonzero;"/>
            </g>
            <g transform="matrix(498.162,0,0,498.162,2044.74,1211.68)">
                <path d="M0.527,-0L0.485,-0.191L0.428,-0.432L0.425,-0.432L0.325,-0L0.165,-0L0.01,-0.546L0.158,-0.546L0.221,-0.304C0.231,-0.261 0.242,-0.201 0.252,-0.125L0.255,-0.125C0.256,-0.15 0.262,-0.189 0.272,-0.243L0.28,-0.284L0.347,-0.546L0.511,-0.546L0.575,-0.284C0.576,-0.277 0.579,-0.266 0.581,-0.252C0.584,-0.238 0.587,-0.224 0.589,-0.208C0.592,-0.192 0.594,-0.177 0.596,-0.161C0.599,-0.146 0.6,-0.134 0.6,-0.125L0.603,-0.125C0.606,-0.148 0.611,-0.181 0.619,-0.221C0.626,-0.262 0.632,-0.29 0.635,-0.304L0.7,-0.546L0.846,-0.546L0.689,-0L0.527,-0Z" style="fill:rgb(102,252,241);fill-rule:nonzero;"/>
            </g>
            <g transform="matrix(498.162,0,0,498.162,2471.14,1211.68)">
                <path d="M0.425,-0L0.396,-0.074L0.392,-0.074C0.367,-0.043 0.341,-0.021 0.315,-0.009C0.288,0.004 0.254,0.01 0.211,0.01C0.159,0.01 0.117,-0.005 0.087,-0.035C0.057,-0.065 0.042,-0.108 0.042,-0.163C0.042,-0.221 0.062,-0.264 0.103,-0.291C0.143,-0.319 0.204,-0.334 0.286,-0.337L0.381,-0.34L0.381,-0.364C0.381,-0.419 0.353,-0.447 0.296,-0.447C0.252,-0.447 0.201,-0.434 0.142,-0.407L0.093,-0.508C0.156,-0.541 0.225,-0.557 0.302,-0.557C0.375,-0.557 0.431,-0.541 0.47,-0.509C0.509,-0.477 0.529,-0.429 0.529,-0.364L0.529,-0L0.425,-0ZM0.381,-0.253L0.323,-0.251C0.28,-0.25 0.248,-0.242 0.227,-0.228C0.205,-0.213 0.195,-0.191 0.195,-0.162C0.195,-0.12 0.219,-0.099 0.267,-0.099C0.302,-0.099 0.329,-0.109 0.35,-0.129C0.371,-0.149 0.381,-0.175 0.381,-0.208L0.381,-0.253Z" style="fill:rgb(102,252,241);fill-rule:nonzero;"/>
            </g>
            <g transform="matrix(498.162,0,0,498.162,2772.03,1211.68)">
                <path d="M0,-0.546L0.163,-0.546L0.266,-0.239C0.275,-0.212 0.281,-0.181 0.284,-0.144L0.287,-0.144C0.291,-0.178 0.298,-0.209 0.308,-0.239L0.409,-0.546L0.569,-0.546L0.338,0.07C0.317,0.127 0.287,0.169 0.247,0.198C0.208,0.226 0.162,0.24 0.11,0.24C0.084,0.24 0.059,0.237 0.034,0.232L0.034,0.114C0.052,0.118 0.072,0.12 0.093,0.12C0.119,0.12 0.142,0.112 0.162,0.096C0.182,0.08 0.197,0.056 0.208,0.023L0.217,-0.004L0,-0.546Z" style="fill:rgb(102,252,241);fill-rule:nonzero;"/>
            </g>
        </g>
    </g>
</svg>
